PathFileType	4	(X/Y/Z)	 1.8Hz3min.trc
DataRate	CameraRate	NumFrames	NumMarkers	Units	OrigDataRate	OrigDataStartFrame	OrigNumFrames
200	200	9	39	m	200	626	1000
Frame#	Time	C7			LSH			RSH			MAN			RASI			LASI			HIPR			HIPL			RPSI			LPSI			COX			RTHI1			RTHI2			RTHI3			RTHI4			RLKN			RMKN			RSHA1			RSHA2			RSHA3			RSHA4			RHEEL			RMET5			RMET1			RTOE			LTHI1			LTHI2			LTHI3			LTHI4			LLKN			LMKN			LSHA1			LSHA2			LSHA3			LSHA4			LHEEL			LMET5			LMET1			LTOE			
		X1	Y1	Z1	X2	Y2	Z2	X3	Y3	Z3	X4	Y4	Z4	X5	Y5	Z5	X6	Y6	Z6	X7	Y7	Z7	X8	Y8	Z8	X9	Y9	Z9	X10	Y10	Z10	X11	Y11	Z11	X12	Y12	Z12	X13	Y13	Z13	X14	Y14	Z14	X15	Y15	Z15	X16	Y16	Z16	X17	Y17	Z17	X18	Y18	Z18	X19	Y19	Z19	X20	Y20	Z20	X21	Y21	Z21	X22	Y22	Z22	X23	Y23	Z23	X24	Y24	Z24	X25	Y25	Z25	X26	Y26	Z26	X27	Y27	Z27	X28	Y28	Z28	X29	Y29	Z29	X30	Y30	Z30	X31	Y31	Z31	X32	Y32	Z32	X33	Y33	Z33	X34	Y34	Z34	X35	Y35	Z35	X36	Y36	Z36	X37	Y37	Z37	X38	Y38	Z38	X39	Y39	Z39	
626	3.1300	-0.218536	1.447222	-0.536394	-0.170714	1.431779	-0.718182	-0.187951	1.445219	-0.356058	-0.060715	1.390449	-0.539395	-0.123749	0.926429	-0.411323	-0.118365	0.922366	-0.648614	-0.194733	1.001719	-0.364547	-0.183567	0.982889	-0.699415	-0.287722	0.999998	-0.489594	-0.285213	1.001109	-0.577739	-0.284367	1.004704	-0.530922	-0.197347	0.743875	-0.331797	-0.177417	0.688271	-0.323930	-0.115720	0.708567	-0.320058	-0.128851	0.768017	-0.329236	-0.114294	0.432637	-0.349581	-0.092606	0.426799	-0.467474	-0.211918	0.333270	-0.338160	-0.231827	0.298592	-0.353111	-0.175859	0.274917	-0.353951	-0.159772	0.310321	-0.343018	-0.350153	0.087984	-0.454996	-0.207187	0.034700	-0.366463	-0.142271	0.046477	-0.431449	-0.112280	0.034622	-0.424493	-0.200044	0.737040	-0.729013	-0.174570	0.681476	-0.738398	-0.114069	0.703576	-0.743428	-0.130669	0.761136	-0.734969	-0.124510	0.433081	-0.714381	-0.087619	0.431028	-0.596462	-0.219874	0.321171	-0.717695	-0.239036	0.287199	-0.705915	-0.181649	0.261133	-0.710334	-0.169528	0.301645	-0.722573	-0.354095	0.074229	-0.615217	-0.201658	0.035315	-0.709973	-0.140252	0.047431	-0.640935	-0.115244	0.036431	-0.652724	
627	3.1350	-0.219488	1.453656	-0.536319	-0.171829	1.438802	-0.717881	-0.188959	1.452142	-0.356174	-0.061536	1.397991	-0.539389	-0.122078	0.933262	-0.411352	-0.117237	0.929072	-0.648714	-0.192591	1.008824	-0.364490	-0.182416	0.989519	-0.699042	-0.286361	1.006291	-0.489093	-0.284077	1.007314	-0.577338	-0.283177	1.010848	-0.530497	-0.197505	0.750271	-0.331847	-0.178250	0.694413	-0.324020	-0.116281	0.714006	-0.319855	-0.128702	0.773640	-0.328975	-0.118400	0.437714	-0.349658	-0.096669	0.431460	-0.467596	-0.215149	0.337319	-0.338251	-0.234616	0.302344	-0.353000	-0.178391	0.279258	-0.353419	-0.162738	0.314894	-0.342659	-0.349567	0.090470	-0.454050	-0.206993	0.034742	-0.366377	-0.142227	0.046559	-0.431283	-0.112344	0.034615	-0.424543	-0.200769	0.743436	-0.728407	-0.175925	0.687595	-0.737857	-0.115195	0.709049	-0.743090	-0.131167	0.766773	-0.734610	-0.129025	0.438028	-0.713838	-0.091709	0.435720	-0.595985	-0.223168	0.325084	-0.717196	-0.241981	0.290843	-0.705537	-0.184454	0.265333	-0.710444	-0.172728	0.306030	-0.722416	-0.353602	0.076581	-0.615695	-0.201509	0.035381	-0.709867	-0.140215	0.047424	-0.640970	-0.115276	0.036437	-0.652665	
628	3.1400	-0.220433	1.460206	-0.536239	-0.172907	1.445928	-0.717573	-0.189882	1.459150	-0.356248	-0.062493	1.405592	-0.539458	-0.120415	0.940267	-0.411403	-0.116146	0.935963	-0.648843	-0.190520	1.016045	-0.364449	-0.181319	0.996380	-0.698627	-0.285053	1.012669	-0.488563	-0.283011	1.013611	-0.576896	-0.282049	1.017074	-0.530038	-0.197556	0.756895	-0.331871	-0.178953	0.700812	-0.324096	-0.116732	0.719713	-0.319748	-0.128473	0.779507	-0.328817	-0.122474	0.443059	-0.349797	-0.100620	0.436332	-0.467780	-0.218359	0.341602	-0.338375	-0.237398	0.306319	-0.352916	-0.180913	0.283846	-0.352885	-0.165691	0.319694	-0.342305	-0.348883	0.093238	-0.453040	-0.206761	0.034824	-0.366295	-0.142185	0.046625	-0.431135	-0.112415	0.034607	-0.424606	-0.201417	0.750048	-0.727816	-0.177182	0.693946	-0.737318	-0.116237	0.714771	-0.742715	-0.131599	0.772643	-0.734212	-0.133487	0.443195	-0.713258	-0.095750	0.440623	-0.595465	-0.226432	0.329225	-0.716681	-0.244890	0.294722	-0.705151	-0.187232	0.269757	-0.710573	-0.175904	0.310681	-0.722301	-0.352992	0.079230	-0.616205	-0.201330	0.035478	-0.709753	-0.140177	0.047420	-0.641015	-0.115306	0.036439	-0.652594	
629	3.1450	-0.221367	1.466849	-0.536150	-0.173942	1.453137	-0.717260	-0.190687	1.466230	-0.356262	-0.063588	1.413223	-0.539600	-0.118763	0.947420	-0.411474	-0.115095	0.942993	-0.648987	-0.188541	1.023341	-0.364426	-0.180266	1.003447	-0.698179	-0.283812	1.019107	-0.488018	-0.282014	1.019975	-0.576426	-0.280990	1.023351	-0.529560	-0.197486	0.763701	-0.331856	-0.179509	0.707400	-0.324146	-0.117067	0.725628	-0.319731	-0.128151	0.785582	-0.328758	-0.126492	0.448628	-0.349989	-0.104415	0.441418	-0.468014	-0.221493	0.346081	-0.338482	-0.240112	0.310486	-0.352815	-0.183389	0.288626	-0.352333	-0.168594	0.324702	-0.341950	-0.348060	0.096250	-0.451944	-0.206485	0.034953	-0.366211	-0.142140	0.046692	-0.431010	-0.112489	0.034612	-0.424692	-0.201981	0.756834	-0.727248	-0.178337	0.700487	-0.736787	-0.117187	0.720690	-0.742315	-0.131962	0.778709	-0.733791	-0.137836	0.448552	-0.712655	-0.099728	0.445725	-0.594907	-0.229646	0.333563	-0.716170	-0.247736	0.298799	-0.704771	-0.189933	0.274413	-0.710715	-0.179022	0.315556	-0.722192	-0.352250	0.082169	-0.616751	-0.201115	0.035611	-0.709637	-0.140136	0.047425	-0.641078	-0.115333	0.036439	-0.652510	
630	3.1500	-0.222281	1.473562	-0.536050	-0.174901	1.460396	-0.716927	-0.191414	1.473355	-0.356236	-0.064814	1.420855	-0.539808	-0.117134	0.954690	-0.411569	-0.114080	0.950123	-0.649142	-0.186671	1.030676	-0.364421	-0.179249	1.010692	-0.697704	-0.282635	1.025574	-0.487465	-0.281083	1.026372	-0.575936	-0.280006	1.029657	-0.529075	-0.197288	0.770638	-0.331790	-0.179913	0.714127	-0.324179	-0.117276	0.731692	-0.319785	-0.127719	0.791794	-0.328759	-0.130424	0.454370	-0.350221	-0.108034	0.446683	-0.468292	-0.224550	0.350732	-0.338623	-0.242767	0.314829	-0.352742	-0.185791	0.293591	-0.351776	-0.171422	0.329879	-0.341609	-0.347119	0.099503	-0.450777	-0.206156	0.035128	-0.366109	-0.142092	0.046745	-0.430889	-0.112565	0.034613	-0.424784	-0.202450	0.763757	-0.726702	-0.179383	0.707176	-0.736271	-0.118041	0.726769	-0.741895	-0.132236	0.784921	-0.733357	-0.142039	0.454061	-0.712040	-0.103632	0.450996	-0.594327	-0.232790	0.338062	-0.715684	-0.250489	0.303041	-0.704414	-0.192539	0.279255	-0.710889	-0.182081	0.320616	-0.722125	-0.351362	0.085367	-0.617356	-0.200858	0.035784	-0.709528	-0.140088	0.047436	-0.641162	-0.115351	0.036437	-0.652419	
631	3.1550	-0.223169	1.480325	-0.535942	-0.175793	1.467687	-0.716586	-0.192062	1.480517	-0.356171	-0.066167	1.428447	-0.540088	-0.115555	0.962012	-0.411685	-0.113091	0.957310	-0.649304	-0.184914	1.038019	-0.364417	-0.178272	1.018077	-0.697202	-0.281525	1.032043	-0.486915	-0.280215	1.032788	-0.575440	-0.279088	1.035973	-0.528583	-0.196973	0.777645	-0.331684	-0.180180	0.720928	-0.324190	-0.117360	0.737836	-0.319891	-0.127180	0.798070	-0.328792	-0.134266	0.460197	-0.350486	-0.111493	0.452091	-0.468583	-0.227479	0.355579	-0.338640	-0.245303	0.319329	-0.352626	-0.188089	0.298723	-0.351191	-0.174137	0.335205	-0.341244	-0.346045	0.102992	-0.449555	-0.205772	0.035346	-0.365978	-0.142040	0.046783	-0.430771	-0.112643	0.034622	-0.424892	-0.202829	0.770773	-0.726189	-0.180322	0.713960	-0.735778	-0.118800	0.732962	-0.741468	-0.132422	0.791246	-0.732926	-0.146059	0.459697	-0.711434	-0.107462	0.456417	-0.593731	-0.235830	0.342667	-0.715198	-0.253141	0.307405	-0.704100	-0.195037	0.284225	-0.711133	-0.185030	0.325792	-0.722122	-0.350325	0.088797	-0.618013	-0.200557	0.035996	-0.709436	-0.140029	0.047453	-0.641272	-0.115356	0.036436	-0.652324	
632	3.1600	-0.224031	1.487110	-0.535823	-0.176615	1.474987	-0.716239	-0.192637	1.487686	-0.356068	-0.067427	1.436056	-0.540293	-0.114032	0.969354	-0.411822	-0.112146	0.964508	-0.649438	-0.183276	1.045340	-0.364409	-0.177331	1.025546	-0.696700	-0.280495	1.038507	-0.486396	-0.279406	1.039201	-0.574948	-0.278241	1.042286	-0.528105	-0.196549	0.784666	-0.331540	-0.180326	0.727750	-0.324191	-0.117335	0.744008	-0.320035	-0.126550	0.804363	-0.328847	-0.137998	0.466064	-0.350777	-0.114809	0.457594	-0.468876	-0.230272	0.360574	-0.338540	-0.247702	0.323933	-0.352480	-0.190270	0.303963	-0.350580	-0.176719	0.340657	-0.340840	-0.344846	0.106716	-0.448301	-0.205334	0.035604	-0.365802	-0.141973	0.046825	-0.430660	-0.112716	0.034639	-0.425008	-0.203120	0.777846	-0.725714	-0.181158	0.720818	-0.735320	-0.119463	0.739237	-0.741048	-0.132518	0.797637	-0.732506	-0.149908	0.465426	-0.710845	-0.111207	0.461956	-0.593131	-0.238754	0.347337	-0.714724	-0.255672	0.311862	-0.703844	-0.197419	0.289309	-0.711452	-0.187888	0.331087	-0.722185	-0.349117	0.092431	-0.618724	-0.200211	0.036245	-0.709372	-0.139952	0.047471	-0.641411	-0.115347	0.036432	-0.652231	
633	3.1650	-0.224856	1.493895	-0.535696	-0.177368	1.482272	-0.715889	-0.193167	1.494849	-0.355942	-0.068594	1.443654	-0.540415	-0.112566	0.976673	-0.411966	-0.111234	0.971666	-0.649514	-0.181756	1.052610	-0.364394	-0.176408	1.033063	-0.696188	-0.279535	1.044939	-0.485903	-0.278645	1.045594	-0.574473	-0.277452	1.048574	-0.527644	-0.196035	0.791649	-0.331378	-0.180379	0.734534	-0.324194	-0.117218	0.750153	-0.320193	-0.125845	0.810640	-0.328909	-0.141604	0.471945	-0.351090	-0.118011	0.463151	-0.469169	-0.232911	0.365685	-0.338332	-0.249949	0.328627	-0.352276	-0.192318	0.309272	-0.349933	-0.179166	0.346192	-0.340423	-0.343490	0.110615	-0.446977	-0.204843	0.035896	-0.365573	-0.141888	0.046872	-0.430539	-0.112785	0.034671	-0.425129	-0.203319	0.784943	-0.725285	-0.181898	0.727715	-0.734906	-0.120031	0.745551	-0.740642	-0.132529	0.804063	-0.732104	-0.153602	0.471223	-0.710282	-0.114865	0.467581	-0.592543	-0.241568	0.352073	-0.714309	-0.258072	0.316388	-0.703644	-0.199661	0.294493	-0.711838	-0.190609	0.336431	-0.722282	-0.347731	0.096275	-0.619500	-0.199828	0.036528	-0.709347	-0.139859	0.047501	-0.641598	-0.115323	0.036429	-0.652150	
634	3.1700	-0.225643	1.500651	-0.535561	-0.178054	1.489510	-0.715530	-0.193670	1.501980	-0.355804	-0.069654	1.451211	-0.540445	-0.111166	0.983923	-0.412111	-0.110341	0.978757	-0.649530	-0.180349	1.059799	-0.364369	-0.175511	1.040592	-0.695672	-0.278640	1.051326	-0.485446	-0.277920	1.051949	-0.574021	-0.276710	1.054828	-0.527200	-0.195466	0.798542	-0.331209	-0.180362	0.741247	-0.324206	-0.117035	0.756233	-0.320355	-0.125095	0.816832	-0.328952	-0.145077	0.477828	-0.351426	-0.121120	0.468722	-0.469466	-0.235431	0.370872	-0.338086	-0.252051	0.333376	-0.352043	-0.194219	0.314656	-0.349263	-0.181469	0.351786	-0.339996	-0.341992	0.114662	-0.445601	-0.204303	0.036219	-0.365293	-0.141789	0.046918	-0.430401	-0.112851	0.034708	-0.425239	-0.203431	0.792032	-0.724907	-0.182538	0.734617	-0.734541	-0.120509	0.751885	-0.740251	-0.132461	0.810488	-0.731722	-0.157171	0.477056	-0.709747	-0.118427	0.473256	-0.591974	-0.244261	0.356845	-0.713950	-0.260332	0.320954	-0.703498	-0.201754	0.299730	-0.712286	-0.193226	0.341849	-0.722472	-0.346169	0.100283	-0.620331	-0.199419	0.036832	-0.709368	-0.139750	0.047548	-0.641847	-0.115285	0.036430	-0.652093	
